<svg width="306" height="471" viewBox="0 0 306 471" fill="none" xmlns="http://www.w3.org/2000/svg">
<g filter="url(#filter0_d)">
<g filter="url(#filter1_d)">
<rect x="5" y="218.344" width="354.05" height="304.876" rx="28" transform="rotate(-38.0759 5 218.344)" fill="#F4FEE0"/>
</g>
<rect x="18.4983" y="218.815" width="333.381" height="287.485" rx="27.5" transform="rotate(-38.0759 18.4983 218.815)" stroke="#5E8E3E"/>
<rect x="182.155" y="393.974" width="291.763" height="16.3912" rx="8.1956" transform="rotate(-38.0759 182.155 393.974)" fill="#F5FFE2"/>
<rect x="182.155" y="393.974" width="139.325" height="16.3912" rx="8.1956" transform="rotate(-38.0759 182.155 393.974)" fill="#5E8E3E" fill-opacity="0.27"/>
<circle cx="228.254" cy="216.268" r="36.0607" transform="rotate(-38.0759 228.254 216.268)" fill="#CCE0B6"/>
<path d="M242.3 207.397C242.864 205.964 241.665 204.459 240.142 204.687L213.171 208.732C211.649 208.96 210.944 210.751 211.903 211.955L228.891 233.291C229.85 234.495 231.754 234.21 232.317 232.777L242.3 207.397Z" fill="black" fill-opacity="0.08"/>
</g>
<defs>
<filter id="filter0_d" x="0.307861" y="11.3081" width="464.109" height="458.725" filterUnits="userSpaceOnUse" color-interpolation-filters="sRGB">
<feFlood flood-opacity="0" result="BackgroundImageFix"/>
<feColorMatrix in="SourceAlpha" type="matrix" values="0 0 0 0 0 0 0 0 0 0 0 0 0 0 0 0 0 0 127 0"/>
<feOffset dx="-6" dy="13"/>
<feGaussianBlur stdDeviation="5"/>
<feColorMatrix type="matrix" values="0 0 0 0 0 0 0 0 0 0 0 0 0 0 0 0 0 0 0.12 0"/>
<feBlend mode="normal" in2="BackgroundImageFix" result="effect1_dropShadow"/>
<feBlend mode="normal" in="SourceGraphic" in2="effect1_dropShadow" result="shape"/>
</filter>
<filter id="filter1_d" x="2.30786" y="1.30811" width="472.109" height="463.725" filterUnits="userSpaceOnUse" color-interpolation-filters="sRGB">
<feFlood flood-opacity="0" result="BackgroundImageFix"/>
<feColorMatrix in="SourceAlpha" type="matrix" values="0 0 0 0 0 0 0 0 0 0 0 0 0 0 0 0 0 0 127 0"/>
<feMorphology radius="5" operator="dilate" in="SourceAlpha" result="effect1_dropShadow"/>
<feOffset dy="4"/>
<feGaussianBlur stdDeviation="4.5"/>
<feColorMatrix type="matrix" values="0 0 0 0 0 0 0 0 0 0 0 0 0 0 0 0 0 0 0.04 0"/>
<feBlend mode="normal" in2="BackgroundImageFix" result="effect1_dropShadow"/>
<feBlend mode="normal" in="SourceGraphic" in2="effect1_dropShadow" result="shape"/>
</filter>
</defs>
</svg>
