<svg width="194" height="40" viewBox="0 0 194 40" fill="none" xmlns="http://www.w3.org/2000/svg">
<path d="M31.4682 7.85498C31.44 7.65486 31.2602 7.54426 31.1115 7.53211C30.9632 7.51996 27.8232 7.29331 27.8232 7.29331C27.8232 7.29331 25.6426 5.18439 25.4033 4.95102C25.1638 4.71766 24.6961 4.78863 24.5146 4.84073C24.4877 4.84841 24.0381 4.98363 23.2942 5.20772C22.5656 3.16594 21.2802 1.28942 19.0184 1.28942C18.9561 1.28942 18.8918 1.29198 18.8274 1.2955C18.1842 0.466892 17.3874 0.106934 16.6993 0.106934C11.4308 0.106934 8.91375 6.52256 8.12451 9.78296C6.07738 10.4009 4.62293 10.8401 4.43719 10.897C3.2945 11.2461 3.2584 11.2813 3.10843 12.3302C2.99521 13.1242 0.00524902 35.6488 0.00524902 35.6488L23.3037 39.9012L35.9277 37.2408C35.9277 37.2408 31.4961 8.0551 31.4682 7.85498ZM22.0064 5.59581C21.4213 5.77228 20.7561 5.97272 20.0351 6.1901C20.0358 6.05487 20.0364 5.92157 20.0364 5.77611C20.0364 4.50699 19.8556 3.4853 19.5655 2.67523C20.7308 2.81781 21.507 4.10931 22.0064 5.59581ZM18.1199 2.92682C18.4438 3.7177 18.6545 4.85256 18.6545 6.38414C18.6545 6.46246 18.6538 6.53407 18.6532 6.60664C17.371 6.99345 15.9779 7.41351 14.5816 7.83484C15.3656 4.88741 16.8351 3.46388 18.1199 2.92682ZM16.5545 1.48347C16.782 1.48347 17.011 1.55859 17.2302 1.70565C15.5418 2.47959 13.7319 4.42899 12.9676 8.32171C11.8505 8.65865 10.7587 8.98792 9.74927 9.29258C10.6445 6.3234 12.7704 1.48347 16.5545 1.48347Z" fill="#95BF46"/>
<path d="M31.1114 7.53243C30.9631 7.52029 27.8232 7.29363 27.8232 7.29363C27.8232 7.29363 25.6425 5.18472 25.4033 4.95135C25.3137 4.8644 25.1929 4.81996 25.0665 4.80078L23.3049 39.9012L35.9277 37.2411C35.9277 37.2411 31.4961 8.05543 31.4682 7.85531C31.4399 7.65519 31.2601 7.54458 31.1114 7.53243Z" fill="#5E8E3E"/>
<path d="M19.0185 14.3267L17.462 18.837C17.462 18.837 16.0981 18.128 14.4264 18.128C11.9757 18.128 11.8523 19.6263 11.8523 20.0039C11.8523 22.0639 17.3649 22.8532 17.3649 27.6784C17.3649 31.4746 14.8931 33.9192 11.5602 33.9192C7.56078 33.9192 5.51562 31.4944 5.51562 31.4944L6.58644 28.0479C6.58644 28.0479 8.6887 29.8062 10.4628 29.8062C11.6219 29.8062 12.0935 28.9172 12.0935 28.2676C12.0935 25.5803 7.57095 25.4605 7.57095 21.0451C7.57095 17.3288 10.3092 13.7324 15.8366 13.7324C17.9664 13.7324 19.0185 14.3267 19.0185 14.3267Z" fill="white"/>
<path d="M64.9766 15.3281H59.8203L57.2773 30H54.3945L56.9492 15.3281H51.8281L52.25 12.9375H65.3984L64.9766 15.3281ZM69.0195 18.7148C70.0742 17.6055 71.2734 17.0664 72.6172 17.0977C73.8203 17.1133 74.7109 17.5391 75.2891 18.375C75.875 19.2109 76.0938 20.3672 75.9453 21.8438L74.5859 30H71.8086L73.1914 21.8086C73.2305 21.4727 73.2383 21.1602 73.2148 20.8711C73.1133 19.918 72.5508 19.4297 71.5273 19.4062C70.4961 19.3906 69.5742 19.8984 68.7617 20.9297L67.1797 30H64.4023L67.5195 12H70.3086L69.0195 18.7148ZM83.2344 30.2344C82.1328 30.2109 81.1758 29.9336 80.3633 29.4023C79.5586 28.8711 78.9609 28.1445 78.5703 27.2227C78.1875 26.3008 78.043 25.2734 78.1367 24.1406L78.1719 23.6602C78.3125 22.3711 78.6875 21.2148 79.2969 20.1914C79.9141 19.1602 80.6797 18.3789 81.5938 17.8477C82.5078 17.3164 83.5 17.0625 84.5703 17.0859C86.1562 17.1172 87.3438 17.707 88.1328 18.8555C88.9297 20.0039 89.2305 21.5 89.0352 23.3438L88.8711 24.5625H80.8906C80.8203 25.5703 81.0234 26.3828 81.5 27C81.9766 27.6172 82.6328 27.9336 83.4688 27.9492C84.6641 27.9883 85.7656 27.4688 86.7734 26.3906L88.1797 27.8672C87.6484 28.625 86.9492 29.2148 86.082 29.6367C85.2148 30.0508 84.2656 30.25 83.2344 30.2344ZM84.418 19.3594C82.9492 19.3125 81.8477 20.3516 81.1133 22.4766L86.375 22.4883L86.4219 22.2422C86.4766 21.8828 86.4805 21.5312 86.4336 21.1875C86.3477 20.6328 86.1289 20.1953 85.7773 19.875C85.4258 19.5547 84.9727 19.3828 84.418 19.3594ZM105.734 25.5234C105.906 24.3984 105.293 23.5625 103.895 23.0156L102.945 22.6641C101.18 22.0469 99.9258 21.3164 99.1836 20.4727C98.4414 19.6289 98.1055 18.6484 98.1758 17.5312C98.2383 16.5625 98.5664 15.7109 99.1602 14.9766C99.7617 14.2344 100.551 13.6641 101.527 13.2656C102.504 12.8672 103.543 12.6797 104.645 12.7031C105.707 12.7266 106.652 12.9609 107.48 13.4062C108.309 13.8438 108.941 14.457 109.379 15.2461C109.816 16.0273 110.02 16.9219 109.988 17.9297L107.105 17.918C107.16 17.0273 106.961 16.3359 106.508 15.8438C106.062 15.3516 105.387 15.0938 104.48 15.0703C103.566 15.0547 102.793 15.2695 102.16 15.7148C101.535 16.1602 101.168 16.7617 101.059 17.5195C100.902 18.5117 101.566 19.293 103.051 19.8633L103.93 20.1797C105.719 20.8203 106.969 21.5742 107.68 22.4414C108.391 23.3008 108.703 24.3203 108.617 25.5C108.539 26.4609 108.223 27.3008 107.668 28.0195C107.113 28.7305 106.344 29.2812 105.359 29.6719C104.383 30.0625 103.305 30.25 102.125 30.2344C101.008 30.2266 99.9922 29.9922 99.0781 29.5312C98.1719 29.0703 97.4766 28.4336 96.9922 27.6211C96.5078 26.8008 96.2852 25.8711 96.3242 24.832L99.2188 24.8438C99.1562 25.8125 99.3945 26.5586 99.9336 27.082C100.473 27.6055 101.246 27.875 102.254 27.8906C103.191 27.9062 103.973 27.707 104.598 27.293C105.23 26.8789 105.609 26.2891 105.734 25.5234ZM114.793 18.7148C115.848 17.6055 117.047 17.0664 118.391 17.0977C119.594 17.1133 120.484 17.5391 121.062 18.375C121.648 19.2109 121.867 20.3672 121.719 21.8438L120.359 30H117.582L118.965 21.8086C119.004 21.4727 119.012 21.1602 118.988 20.8711C118.887 19.918 118.324 19.4297 117.301 19.4062C116.27 19.3906 115.348 19.8984 114.535 20.9297L112.953 30H110.176L113.293 12H116.082L114.793 18.7148ZM123.934 23.6133C124.066 22.3711 124.43 21.2422 125.023 20.2266C125.625 19.2109 126.395 18.4258 127.332 17.8711C128.27 17.3164 129.309 17.0547 130.449 17.0859C131.535 17.1016 132.473 17.3906 133.262 17.9531C134.051 18.5156 134.625 19.2852 134.984 20.2617C135.352 21.2383 135.48 22.3242 135.371 23.5195C135.246 24.8633 134.879 26.0508 134.27 27.082C133.668 28.1133 132.895 28.9062 131.949 29.4609C131.012 30.0078 129.969 30.2656 128.82 30.2344C127.742 30.2188 126.809 29.9336 126.02 29.3789C125.238 28.8164 124.664 28.0508 124.297 27.082C123.93 26.1055 123.797 25.0312 123.898 23.8594L123.934 23.6133ZM126.664 25.2188C126.703 26.0391 126.918 26.6992 127.309 27.1992C127.707 27.6914 128.258 27.9492 128.961 27.9727C129.914 27.9961 130.711 27.6289 131.352 26.8711C132 26.1133 132.406 25.0781 132.57 23.7656L132.641 22.6172C132.641 21.6172 132.441 20.832 132.043 20.2617C131.645 19.6914 131.066 19.3906 130.309 19.3594C129.121 19.3281 128.184 19.9102 127.496 21.1055C127.082 21.832 126.82 22.668 126.711 23.6133C126.648 24.2695 126.633 24.8047 126.664 25.2188ZM148.52 23.707C148.363 24.9727 148.023 26.1211 147.5 27.1523C146.984 28.1836 146.324 28.9648 145.52 29.4961C144.723 30.0195 143.828 30.2695 142.836 30.2461C141.516 30.2148 140.477 29.7461 139.719 28.8398L138.582 34.875H135.793L138.84 17.3203L141.383 17.3086L141.172 18.6211C142.141 17.5664 143.293 17.0547 144.629 17.0859C145.434 17.0938 146.133 17.3008 146.727 17.707C147.32 18.1055 147.773 18.6875 148.086 19.4531C148.406 20.2188 148.578 21.0703 148.602 22.0078C148.609 22.4844 148.582 23.0508 148.52 23.707ZM145.777 23.4609L145.836 22.6055C145.859 21.5977 145.691 20.8164 145.332 20.2617C144.98 19.707 144.449 19.4219 143.738 19.4062C142.691 19.375 141.785 19.8555 141.02 20.8477L140.035 26.5078C140.387 27.4531 141.102 27.9414 142.18 27.9727C143.102 27.9961 143.875 27.6367 144.5 26.8945C145.133 26.1523 145.559 25.0078 145.777 23.4609ZM161.738 23.707C161.582 24.9727 161.242 26.1211 160.719 27.1523C160.203 28.1836 159.543 28.9648 158.738 29.4961C157.941 30.0195 157.047 30.2695 156.055 30.2461C154.734 30.2148 153.695 29.7461 152.938 28.8398L151.801 34.875H149.012L152.059 17.3203L154.602 17.3086L154.391 18.6211C155.359 17.5664 156.512 17.0547 157.848 17.0859C158.652 17.0938 159.352 17.3008 159.945 17.707C160.539 18.1055 160.992 18.6875 161.305 19.4531C161.625 20.2188 161.797 21.0703 161.82 22.0078C161.828 22.4844 161.801 23.0508 161.738 23.707ZM158.996 23.4609L159.055 22.6055C159.078 21.5977 158.91 20.8164 158.551 20.2617C158.199 19.707 157.668 19.4219 156.957 19.4062C155.91 19.375 155.004 19.8555 154.238 20.8477L153.254 26.5078C153.605 27.4531 154.32 27.9414 155.398 27.9727C156.32 27.9961 157.094 27.6367 157.719 26.8945C158.352 26.1523 158.777 25.0078 158.996 23.4609ZM166.039 30H163.262L165.465 17.3203H168.242L166.039 30ZM165.863 14.0742C165.863 13.6445 166.004 13.2773 166.285 12.9727C166.566 12.668 166.945 12.5078 167.422 12.4922C167.875 12.4766 168.25 12.6172 168.547 12.9141C168.852 13.2031 169.004 13.5586 169.004 13.9805C169.004 14.4258 168.855 14.793 168.559 15.082C168.27 15.3711 167.898 15.5234 167.445 15.5391C167 15.5547 166.625 15.4219 166.32 15.1406C166.016 14.8516 165.863 14.4961 165.863 14.0742ZM174.898 30.2344C173.797 30.2109 172.84 29.9336 172.027 29.4023C171.223 28.8711 170.625 28.1445 170.234 27.2227C169.852 26.3008 169.707 25.2734 169.801 24.1406L169.836 23.6602C169.977 22.3711 170.352 21.2148 170.961 20.1914C171.578 19.1602 172.344 18.3789 173.258 17.8477C174.172 17.3164 175.164 17.0625 176.234 17.0859C177.82 17.1172 179.008 17.707 179.797 18.8555C180.594 20.0039 180.895 21.5 180.699 23.3438L180.535 24.5625H172.555C172.484 25.5703 172.688 26.3828 173.164 27C173.641 27.6172 174.297 27.9336 175.133 27.9492C176.328 27.9883 177.43 27.4688 178.438 26.3906L179.844 27.8672C179.312 28.625 178.613 29.2148 177.746 29.6367C176.879 30.0508 175.93 30.25 174.898 30.2344ZM176.082 19.3594C174.613 19.3125 173.512 20.3516 172.777 22.4766L178.039 22.4883L178.086 22.2422C178.141 21.8828 178.145 21.5312 178.098 21.1875C178.012 20.6328 177.793 20.1953 177.441 19.875C177.09 19.5547 176.637 19.3828 176.082 19.3594ZM189.348 26.4844C189.48 25.7109 188.977 25.1758 187.836 24.8789C186.703 24.5742 185.93 24.332 185.516 24.1523C183.906 23.4648 183.129 22.418 183.184 21.0117C183.223 19.8711 183.738 18.9297 184.73 18.1875C185.73 17.4375 186.926 17.0703 188.316 17.0859C189.66 17.1016 190.754 17.4805 191.598 18.2227C192.449 18.9648 192.867 19.9375 192.852 21.1406L190.098 21.1289C190.113 20.543 189.953 20.0859 189.617 19.7578C189.281 19.4219 188.82 19.2461 188.234 19.2305C187.617 19.2305 187.086 19.3828 186.641 19.6875C186.203 19.9922 185.949 20.3906 185.879 20.8828C185.77 21.5938 186.27 22.0898 187.379 22.3711C188.488 22.6445 189.309 22.8984 189.84 23.1328C191.387 23.8125 192.133 24.875 192.078 26.3203C192.039 27.125 191.773 27.8281 191.281 28.4297C190.797 29.0234 190.145 29.4805 189.324 29.8008C188.504 30.1133 187.633 30.2578 186.711 30.2344C185.328 30.2188 184.18 29.8164 183.266 29.0273C182.359 28.2383 181.914 27.2266 181.93 25.9922L184.613 26.0039C184.629 26.6836 184.832 27.1992 185.223 27.5508C185.613 27.9023 186.148 28.082 186.828 28.0898C187.516 28.0898 188.086 27.9492 188.539 27.668C189 27.3789 189.27 26.9844 189.348 26.4844Z" fill="black"/>
</svg>
